<?xml version="1.0" encoding="UTF-8" standalone="no"?>
<!-- Created with Inkscape (http://www.inkscape.org/) -->

<svg
   xmlns:dc="http://purl.org/dc/elements/1.1/"
   xmlns:cc="http://creativecommons.org/ns#"
   xmlns:rdf="http://www.w3.org/1999/02/22-rdf-syntax-ns#"
   xmlns:svg="http://www.w3.org/2000/svg"
   xmlns="http://www.w3.org/2000/svg"
   xmlns:sodipodi="http://sodipodi.sourceforge.net/DTD/sodipodi-0.dtd"
   xmlns:inkscape="http://www.inkscape.org/namespaces/inkscape"
   width="96.277641mm"
   height="99.528664mm"
   viewBox="0 0 96.277641 99.528664"
   version="1.1"
   id="svg8"
   inkscape:version="0.92.3 (2405546, 2018-03-11)"
   sodipodi:docname="latawiec.svg">
  <defs
     id="defs2">
    <inkscape:path-effect
       effect="spiro"
       id="path-effect30"
       is_visible="true" />
    <inkscape:path-effect
       effect="spiro"
       id="path-effect26"
       is_visible="true" />
    <inkscape:path-effect
       effect="spiro"
       id="path-effect20"
       is_visible="true" />
    <inkscape:path-effect
       effect="spiro"
       id="path-effect16"
       is_visible="true" />
  </defs>
  <sodipodi:namedview
     id="base"
     pagecolor="#ffffff"
     bordercolor="#666666"
     borderopacity="1.0"
     inkscape:pageopacity="0.0"
     inkscape:pageshadow="2"
     inkscape:zoom="0.7"
     inkscape:cx="147.5235"
     inkscape:cy="171.90193"
     inkscape:document-units="mm"
     inkscape:current-layer="layer1"
     showgrid="false"
     inkscape:window-width="1920"
     inkscape:window-height="1012"
     inkscape:window-x="0"
     inkscape:window-y="0"
     inkscape:window-maximized="1"
     fit-margin-top="0"
     fit-margin-left="0"
     fit-margin-right="0"
     fit-margin-bottom="0" />
  <metadata
     id="metadata5">
    <rdf:RDF>
      <cc:Work
         rdf:about="">
        <dc:format>image/svg+xml</dc:format>
        <dc:type
           rdf:resource="http://purl.org/dc/dcmitype/StillImage" />
        <dc:title></dc:title>
      </cc:Work>
    </rdf:RDF>
  </metadata>
  <g
     inkscape:label="Layer 1"
     inkscape:groupmode="layer"
     id="layer1"
     transform="translate(13.189654,7.0423334)">
    <g
       id="g980">
      <path
         transform="rotate(-22.080032,12.473214,18.620535)"
         d="M 24.946429,32.416666 C 5.4357527,50.056455 16.316872,50.604426 -1.3229172,31.093749 -18.962706,11.583073 -19.510676,22.464193 -4.2863655e-7,4.8244036 19.510676,-12.815386 8.6295563,-13.363356 26.269345,6.1473203 43.909135,25.657996 44.457105,14.776877 24.946429,32.416666 Z"
         inkscape:randomized="0"
         inkscape:rounded="1"
         inkscape:flatsided="true"
         sodipodi:arg2="1.6211135"
         sodipodi:arg1="0.83571537"
         sodipodi:r2="18.598772"
         sodipodi:r1="18.598772"
         sodipodi:cy="18.620535"
         sodipodi:cx="12.473214"
         sodipodi:sides="4"
         id="path10"
         style="opacity:1;vector-effect:none;fill:#cccccc;fill-opacity:1;stroke:none;stroke-width:0.60000002;stroke-linecap:butt;stroke-linejoin:round;stroke-miterlimit:4;stroke-dasharray:none;stroke-dashoffset:0;stroke-opacity:1;paint-order:fill markers stroke"
         sodipodi:type="star" />
      <path
         sodipodi:type="star"
         style="opacity:1;vector-effect:none;fill:#e6e6e6;fill-opacity:1;stroke:none;stroke-width:0.69168788;stroke-linecap:butt;stroke-linejoin:round;stroke-miterlimit:4;stroke-dasharray:none;stroke-dashoffset:0;stroke-opacity:1;paint-order:fill markers stroke"
         id="path22"
         sodipodi:sides="4"
         sodipodi:cx="12.473214"
         sodipodi:cy="18.620535"
         sodipodi:r1="18.598772"
         sodipodi:r2="18.598772"
         sodipodi:arg1="0.83571537"
         sodipodi:arg2="1.6211135"
         inkscape:flatsided="true"
         inkscape:rounded="1"
         inkscape:randomized="0"
         d="M 24.946429,32.416666 C 5.4357527,50.056455 16.316872,50.604426 -1.3229172,31.093749 -18.962706,11.583073 -19.510676,22.464193 -4.2863655e-7,4.8244036 19.510676,-12.815386 8.6295563,-13.363356 26.269345,6.1473203 43.909135,25.657996 44.457105,14.776877 24.946429,32.416666 Z"
         transform="matrix(0.80382472,-0.32607309,0.32607309,0.80382472,-3.6247191,7.7200681)" />
      <path
         inkscape:original-d="M 6.6145832,2.5565473 C 10.020055,12.881112 11.353727,24.595323 16.441964,32.227678"
         inkscape:path-effect="#path-effect26"
         inkscape:connector-curvature="0"
         id="path24"
         d="M 6.6145832,2.5565473 16.441964,32.227678"
         style="fill:none;stroke:#000000;stroke-width:0.5;stroke-linecap:butt;stroke-linejoin:miter;stroke-miterlimit:4;stroke-dasharray:none;stroke-opacity:1" />
      <path
         inkscape:original-d="M -1.7008928,25.235118 C 6.0806274,18.720464 16.109068,14.651785 25.702381,14.651785"
         inkscape:path-effect="#path-effect30"
         inkscape:connector-curvature="0"
         id="path28"
         d="M -1.7008928,25.235118 25.702381,14.651785"
         style="fill:none;stroke:#000000;stroke-width:0.5;stroke-linecap:butt;stroke-linejoin:miter;stroke-miterlimit:4;stroke-dasharray:none;stroke-opacity:1" />
      <g
         style="stroke-width:6.66663265"
         transform="matrix(0.15000077,0,0,0.15000077,42.196859,25.271537)"
         id="g56">
        <path
           transform="rotate(-22.080032,166.87893,111.08811)"
           d="M 24.946429,32.416666 C 5.4357527,50.056455 16.316872,50.604426 -1.3229172,31.093749 -18.962706,11.583073 -19.510676,22.464193 -4.2863655e-7,4.8244036 19.510676,-12.815386 8.6295563,-13.363356 26.269345,6.1473203 43.909135,25.657996 44.457105,14.776877 24.946429,32.416666 Z"
           inkscape:randomized="0"
           inkscape:rounded="1"
           inkscape:flatsided="true"
           sodipodi:arg2="1.6211135"
           sodipodi:arg1="0.83571537"
           sodipodi:r2="18.598772"
           sodipodi:r1="18.598772"
           sodipodi:cy="18.620535"
           sodipodi:cx="12.473214"
           sodipodi:sides="4"
           id="path50"
           style="opacity:1;vector-effect:none;fill:#cccccc;fill-opacity:1;stroke:none;stroke-width:3.99997973;stroke-linecap:butt;stroke-linejoin:round;stroke-miterlimit:4;stroke-dasharray:none;stroke-dashoffset:0;stroke-opacity:1;paint-order:fill markers stroke"
           sodipodi:type="star" />
        <path
           sodipodi:type="star"
           style="opacity:1;vector-effect:none;fill:#e6e6e6;fill-opacity:1;stroke:none;stroke-width:4.61122894;stroke-linecap:butt;stroke-linejoin:round;stroke-miterlimit:4;stroke-dasharray:none;stroke-dashoffset:0;stroke-opacity:1;paint-order:fill markers stroke"
           id="path52"
           sodipodi:sides="4"
           sodipodi:cx="12.473214"
           sodipodi:cy="18.620535"
           sodipodi:r1="18.598772"
           sodipodi:r2="18.598772"
           sodipodi:arg1="0.83571537"
           sodipodi:arg2="1.6211135"
           inkscape:flatsided="true"
           inkscape:rounded="1"
           inkscape:randomized="0"
           d="M 24.946429,32.416666 C 5.4357527,50.056455 16.316872,50.604426 -1.3229172,31.093749 -18.962706,11.583073 -19.510676,22.464193 -4.2863655e-7,4.8244036 19.510676,-12.815386 8.6295563,-13.363356 26.269345,6.1473203 43.909135,25.657996 44.457105,14.776877 24.946429,32.416666 Z"
           transform="matrix(0.80382472,-0.32607309,0.32607309,0.80382472,-27.059243,72.542985)" />
      </g>
      <g
         style="stroke-width:6.66663265"
         transform="matrix(0.10692858,0.10519748,-0.10519748,0.10692858,51.778441,14.049238)"
         id="g68">
        <path
           transform="rotate(-22.080032,166.87893,111.08811)"
           d="M 24.946429,32.416666 C 5.4357527,50.056455 16.316872,50.604426 -1.3229172,31.093749 -18.962706,11.583073 -19.510676,22.464193 -4.2863655e-7,4.8244036 19.510676,-12.815386 8.6295563,-13.363356 26.269345,6.1473203 43.909135,25.657996 44.457105,14.776877 24.946429,32.416666 Z"
           inkscape:randomized="0"
           inkscape:rounded="1"
           inkscape:flatsided="true"
           sodipodi:arg2="1.6211135"
           sodipodi:arg1="0.83571537"
           sodipodi:r2="18.598772"
           sodipodi:r1="18.598772"
           sodipodi:cy="18.620535"
           sodipodi:cx="12.473214"
           sodipodi:sides="4"
           id="path64"
           style="opacity:1;vector-effect:none;fill:#cccccc;fill-opacity:1;stroke:none;stroke-width:3.99997973;stroke-linecap:butt;stroke-linejoin:round;stroke-miterlimit:4;stroke-dasharray:none;stroke-dashoffset:0;stroke-opacity:1;paint-order:fill markers stroke"
           sodipodi:type="star" />
        <path
           sodipodi:type="star"
           style="opacity:1;vector-effect:none;fill:#e6e6e6;fill-opacity:1;stroke:none;stroke-width:4.61122894;stroke-linecap:butt;stroke-linejoin:round;stroke-miterlimit:4;stroke-dasharray:none;stroke-dashoffset:0;stroke-opacity:1;paint-order:fill markers stroke"
           id="path66"
           sodipodi:sides="4"
           sodipodi:cx="12.473214"
           sodipodi:cy="18.620535"
           sodipodi:r1="18.598772"
           sodipodi:r2="18.598772"
           sodipodi:arg1="0.83571537"
           sodipodi:arg2="1.6211135"
           inkscape:flatsided="true"
           inkscape:rounded="1"
           inkscape:randomized="0"
           d="M 24.946429,32.416666 C 5.4357527,50.056455 16.316872,50.604426 -1.3229172,31.093749 -18.962706,11.583073 -19.510676,22.464193 -4.2863655e-7,4.8244036 19.510676,-12.815386 8.6295563,-13.363356 26.269345,6.1473203 43.909135,25.657996 44.457105,14.776877 24.946429,32.416666 Z"
           transform="matrix(0.80382472,-0.32607309,0.32607309,0.80382472,-27.059243,72.542985)" />
      </g>
      <g
         id="g86"
         transform="matrix(0.11558354,-0.09560688,0.09560688,0.11558354,16.602949,64.713639)"
         style="stroke-width:6.66663265">
        <path
           sodipodi:type="star"
           style="opacity:1;vector-effect:none;fill:#cccccc;fill-opacity:1;stroke:none;stroke-width:3.99997973;stroke-linecap:butt;stroke-linejoin:round;stroke-miterlimit:4;stroke-dasharray:none;stroke-dashoffset:0;stroke-opacity:1;paint-order:fill markers stroke"
           id="path82"
           sodipodi:sides="4"
           sodipodi:cx="12.473214"
           sodipodi:cy="18.620535"
           sodipodi:r1="18.598772"
           sodipodi:r2="18.598772"
           sodipodi:arg1="0.83571537"
           sodipodi:arg2="1.6211135"
           inkscape:flatsided="true"
           inkscape:rounded="1"
           inkscape:randomized="0"
           d="M 24.946429,32.416666 C 5.4357527,50.056455 16.316872,50.604426 -1.3229172,31.093749 -18.962706,11.583073 -19.510676,22.464193 -4.2863655e-7,4.8244036 19.510676,-12.815386 8.6295563,-13.363356 26.269345,6.1473203 43.909135,25.657996 44.457105,14.776877 24.946429,32.416666 Z"
           transform="rotate(-22.080032,166.87893,111.08811)" />
        <path
           transform="matrix(0.80382472,-0.32607309,0.32607309,0.80382472,-27.059243,72.542985)"
           d="M 24.946429,32.416666 C 5.4357527,50.056455 16.316872,50.604426 -1.3229172,31.093749 -18.962706,11.583073 -19.510676,22.464193 -4.2863655e-7,4.8244036 19.510676,-12.815386 8.6295563,-13.363356 26.269345,6.1473203 43.909135,25.657996 44.457105,14.776877 24.946429,32.416666 Z"
           inkscape:randomized="0"
           inkscape:rounded="1"
           inkscape:flatsided="true"
           sodipodi:arg2="1.6211135"
           sodipodi:arg1="0.83571537"
           sodipodi:r2="18.598772"
           sodipodi:r1="18.598772"
           sodipodi:cy="18.620535"
           sodipodi:cx="12.473214"
           sodipodi:sides="4"
           id="path84"
           style="opacity:1;vector-effect:none;fill:#e6e6e6;fill-opacity:1;stroke:none;stroke-width:4.61122894;stroke-linecap:butt;stroke-linejoin:round;stroke-miterlimit:4;stroke-dasharray:none;stroke-dashoffset:0;stroke-opacity:1;paint-order:fill markers stroke"
           sodipodi:type="star" />
      </g>
      <g
         style="stroke-width:6.66663265"
         transform="matrix(0.04085569,-0.14432962,0.14432962,0.04085569,67.434184,30.626989)"
         id="g110">
        <path
           transform="rotate(-22.080032,166.87893,111.08811)"
           d="M 24.946429,32.416666 C 5.4357527,50.056455 16.316872,50.604426 -1.3229172,31.093749 -18.962706,11.583073 -19.510676,22.464193 -4.2863655e-7,4.8244036 19.510676,-12.815386 8.6295563,-13.363356 26.269345,6.1473203 43.909135,25.657996 44.457105,14.776877 24.946429,32.416666 Z"
           inkscape:randomized="0"
           inkscape:rounded="1"
           inkscape:flatsided="true"
           sodipodi:arg2="1.6211135"
           sodipodi:arg1="0.83571537"
           sodipodi:r2="18.598772"
           sodipodi:r1="18.598772"
           sodipodi:cy="18.620535"
           sodipodi:cx="12.473214"
           sodipodi:sides="4"
           id="path106"
           style="opacity:1;vector-effect:none;fill:#cccccc;fill-opacity:1;stroke:none;stroke-width:3.99997973;stroke-linecap:butt;stroke-linejoin:round;stroke-miterlimit:4;stroke-dasharray:none;stroke-dashoffset:0;stroke-opacity:1;paint-order:fill markers stroke"
           sodipodi:type="star" />
        <path
           sodipodi:type="star"
           style="opacity:1;vector-effect:none;fill:#e6e6e6;fill-opacity:1;stroke:none;stroke-width:4.61122894;stroke-linecap:butt;stroke-linejoin:round;stroke-miterlimit:4;stroke-dasharray:none;stroke-dashoffset:0;stroke-opacity:1;paint-order:fill markers stroke"
           id="path108"
           sodipodi:sides="4"
           sodipodi:cx="12.473214"
           sodipodi:cy="18.620535"
           sodipodi:r1="18.598772"
           sodipodi:r2="18.598772"
           sodipodi:arg1="0.83571537"
           sodipodi:arg2="1.6211135"
           inkscape:flatsided="true"
           inkscape:rounded="1"
           inkscape:randomized="0"
           d="M 24.946429,32.416666 C 5.4357527,50.056455 16.316872,50.604426 -1.3229172,31.093749 -18.962706,11.583073 -19.510676,22.464193 -4.2863655e-7,4.8244036 19.510676,-12.815386 8.6295563,-13.363356 26.269345,6.1473203 43.909135,25.657996 44.457105,14.776877 24.946429,32.416666 Z"
           transform="matrix(0.80382472,-0.32607309,0.32607309,0.80382472,-27.059243,72.542985)" />
      </g>
      <path
         inkscape:original-d="m 21.166666,44.322915 c 1.106424,3.246662 3.48943,5.946275 5.858632,8.315478 3.810624,3.810624 5.697117,1.538544 9.260417,-1.13393 8.336033,-6.252025 -6.110119,-24.493153 6.614583,-32.127975 2.249344,-1.349608 4.026826,-3.383085 6.80357,-3.779762 17.4719,-2.495986 46.020201,20.168339 22.111607,33.450893 -5.147292,2.859606 -10.485853,2.825073 -16.252976,3.401785 -8.970446,0.897046 -34.769441,9.04522 -36.474702,19.276785 -0.907521,5.44513 8.056362,6.614583 11.528275,6.614583 4.232905,0 8.667612,0.33396 12.851188,-0.188987 4.102375,-0.512797 17.01908,-3.938304 18.898812,1.700893 1.50268,4.508045 -4.519732,8.440528 -5.480656,12.284225"
         inkscape:path-effect="#path-effect20"
         inkscape:connector-curvature="0"
         id="path18"
         d="m 21.166666,44.322915 c 0.104324,1.782666 0.715788,3.532861 1.744277,4.992653 1.02849,1.459791 2.470793,2.624621 4.114355,3.322825 1.500965,0.637627 3.167965,0.885992 4.787438,0.694235 1.619472,-0.191758 3.18697,-0.825347 4.472979,-1.828165 2.242997,-1.74907 3.517563,-4.51474 3.997854,-7.318238 0.480291,-2.803498 0.244252,-5.676044 -0.0518,-8.504937 -0.296051,-2.828893 -0.651267,-5.675489 -0.405065,-8.509156 0.246201,-2.833666 1.150461,-5.699971 3.073592,-7.795644 1.776963,-1.936391 4.274703,-3.064194 6.80357,-3.779762 4.59239,-1.299463 9.552679,-1.381275 14.129439,-0.02779 4.576759,1.353484 8.743142,4.167649 11.540176,8.034851 2.797033,3.867202 4.170052,8.783313 3.576362,13.518941 -0.59369,4.735629 -3.199038,9.224556 -7.13437,11.924891 -2.324546,1.59505 -5.045181,2.555611 -7.821881,3.043089 -2.7767,0.487479 -5.616302,0.515658 -8.431095,0.358696 -4.285899,-0.238995 -8.537975,-0.902893 -12.82003,-1.202969 -4.282056,-0.300077 -8.651708,-0.226181 -12.771718,0.978627 -4.120011,1.204808 -7.99735,3.639493 -10.288847,7.269244 -1.145749,1.814875 -1.874211,3.904695 -2.009908,6.046679 -0.135698,2.141985 0.333065,4.332046 1.415801,6.185204 1.155068,1.976958 2.969376,3.518785 4.998392,4.579746 2.029016,1.060962 4.270428,1.664148 6.529883,2.034837 4.248741,0.697054 8.617173,0.592548 12.851188,-0.188987 3.287962,-0.606908 6.523516,-1.62085 9.864886,-1.740347 1.670684,-0.05975 3.36326,0.110293 4.943615,0.655486 1.580355,0.545193 3.04657,1.479859 4.090311,2.785754 0.861728,1.078166 1.420194,2.396117 1.595446,3.765169 0.175252,1.369053 -0.03323,2.78518 -0.595586,4.045643 -0.562361,1.260463 -1.476951,2.361556 -2.612833,3.14564 -1.135883,0.784085 -2.489717,1.248855 -3.867683,1.327773"
         style="fill:none;stroke:#000000;stroke-width:0.69999999;stroke-linecap:butt;stroke-linejoin:miter;stroke-miterlimit:4;stroke-dasharray:none;stroke-opacity:1" />
      <g
         id="g62"
         transform="matrix(0.14422562,0.04122136,-0.04122136,0.14422562,45.053491,18.315022)"
         style="stroke-width:6.66663265">
        <path
           sodipodi:type="star"
           style="opacity:1;vector-effect:none;fill:#cccccc;fill-opacity:1;stroke:none;stroke-width:3.99997973;stroke-linecap:butt;stroke-linejoin:round;stroke-miterlimit:4;stroke-dasharray:none;stroke-dashoffset:0;stroke-opacity:1;paint-order:fill markers stroke"
           id="path58"
           sodipodi:sides="4"
           sodipodi:cx="12.473214"
           sodipodi:cy="18.620535"
           sodipodi:r1="18.598772"
           sodipodi:r2="18.598772"
           sodipodi:arg1="0.83571537"
           sodipodi:arg2="1.6211135"
           inkscape:flatsided="true"
           inkscape:rounded="1"
           inkscape:randomized="0"
           d="M 24.946429,32.416666 C 5.4357527,50.056455 16.316872,50.604426 -1.3229172,31.093749 -18.962706,11.583073 -19.510676,22.464193 -4.2863655e-7,4.8244036 19.510676,-12.815386 8.6295563,-13.363356 26.269345,6.1473203 43.909135,25.657996 44.457105,14.776877 24.946429,32.416666 Z"
           transform="rotate(-22.080032,166.87893,111.08811)" />
        <path
           transform="matrix(0.80382472,-0.32607309,0.32607309,0.80382472,-27.059243,72.542985)"
           d="M 24.946429,32.416666 C 5.4357527,50.056455 16.316872,50.604426 -1.3229172,31.093749 -18.962706,11.583073 -19.510676,22.464193 -4.2863655e-7,4.8244036 19.510676,-12.815386 8.6295563,-13.363356 26.269345,6.1473203 43.909135,25.657996 44.457105,14.776877 24.946429,32.416666 Z"
           inkscape:randomized="0"
           inkscape:rounded="1"
           inkscape:flatsided="true"
           sodipodi:arg2="1.6211135"
           sodipodi:arg1="0.83571537"
           sodipodi:r2="18.598772"
           sodipodi:r1="18.598772"
           sodipodi:cy="18.620535"
           sodipodi:cx="12.473214"
           sodipodi:sides="4"
           id="path60"
           style="opacity:1;vector-effect:none;fill:#e6e6e6;fill-opacity:1;stroke:none;stroke-width:4.61122894;stroke-linecap:butt;stroke-linejoin:round;stroke-miterlimit:4;stroke-dasharray:none;stroke-dashoffset:0;stroke-opacity:1;paint-order:fill markers stroke"
           sodipodi:type="star" />
      </g>
      <g
         style="stroke-width:6.66663265"
         transform="matrix(6.5702719e-4,0.14999933,-0.14999933,6.5702719e-4,60.908772,18.056935)"
         id="g74">
        <path
           transform="rotate(-22.080032,166.87893,111.08811)"
           d="M 24.946429,32.416666 C 5.4357527,50.056455 16.316872,50.604426 -1.3229172,31.093749 -18.962706,11.583073 -19.510676,22.464193 -4.2863655e-7,4.8244036 19.510676,-12.815386 8.6295563,-13.363356 26.269345,6.1473203 43.909135,25.657996 44.457105,14.776877 24.946429,32.416666 Z"
           inkscape:randomized="0"
           inkscape:rounded="1"
           inkscape:flatsided="true"
           sodipodi:arg2="1.6211135"
           sodipodi:arg1="0.83571537"
           sodipodi:r2="18.598772"
           sodipodi:r1="18.598772"
           sodipodi:cy="18.620535"
           sodipodi:cx="12.473214"
           sodipodi:sides="4"
           id="path70"
           style="opacity:1;vector-effect:none;fill:#cccccc;fill-opacity:1;stroke:none;stroke-width:3.99997973;stroke-linecap:butt;stroke-linejoin:round;stroke-miterlimit:4;stroke-dasharray:none;stroke-dashoffset:0;stroke-opacity:1;paint-order:fill markers stroke"
           sodipodi:type="star" />
        <path
           sodipodi:type="star"
           style="opacity:1;vector-effect:none;fill:#e6e6e6;fill-opacity:1;stroke:none;stroke-width:4.61122894;stroke-linecap:butt;stroke-linejoin:round;stroke-miterlimit:4;stroke-dasharray:none;stroke-dashoffset:0;stroke-opacity:1;paint-order:fill markers stroke"
           id="path72"
           sodipodi:sides="4"
           sodipodi:cx="12.473214"
           sodipodi:cy="18.620535"
           sodipodi:r1="18.598772"
           sodipodi:r2="18.598772"
           sodipodi:arg1="0.83571537"
           sodipodi:arg2="1.6211135"
           inkscape:flatsided="true"
           inkscape:rounded="1"
           inkscape:randomized="0"
           d="M 24.946429,32.416666 C 5.4357527,50.056455 16.316872,50.604426 -1.3229172,31.093749 -18.962706,11.583073 -19.510676,22.464193 -4.2863655e-7,4.8244036 19.510676,-12.815386 8.6295563,-13.363356 26.269345,6.1473203 43.909135,25.657996 44.457105,14.776877 24.946429,32.416666 Z"
           transform="matrix(0.80382472,-0.32607309,0.32607309,0.80382472,-27.059243,72.542985)" />
      </g>
      <g
         style="stroke-width:6.66663265"
         transform="matrix(0.14971779,0.00920936,-0.00920936,0.14971779,20.726852,56.393559)"
         id="g80">
        <path
           transform="rotate(-22.080032,166.87893,111.08811)"
           d="M 24.946429,32.416666 C 5.4357527,50.056455 16.316872,50.604426 -1.3229172,31.093749 -18.962706,11.583073 -19.510676,22.464193 -4.2863655e-7,4.8244036 19.510676,-12.815386 8.6295563,-13.363356 26.269345,6.1473203 43.909135,25.657996 44.457105,14.776877 24.946429,32.416666 Z"
           inkscape:randomized="0"
           inkscape:rounded="1"
           inkscape:flatsided="true"
           sodipodi:arg2="1.6211135"
           sodipodi:arg1="0.83571537"
           sodipodi:r2="18.598772"
           sodipodi:r1="18.598772"
           sodipodi:cy="18.620535"
           sodipodi:cx="12.473214"
           sodipodi:sides="4"
           id="path76"
           style="opacity:1;vector-effect:none;fill:#cccccc;fill-opacity:1;stroke:none;stroke-width:3.99997973;stroke-linecap:butt;stroke-linejoin:round;stroke-miterlimit:4;stroke-dasharray:none;stroke-dashoffset:0;stroke-opacity:1;paint-order:fill markers stroke"
           sodipodi:type="star" />
        <path
           sodipodi:type="star"
           style="opacity:1;vector-effect:none;fill:#e6e6e6;fill-opacity:1;stroke:none;stroke-width:4.61122894;stroke-linecap:butt;stroke-linejoin:round;stroke-miterlimit:4;stroke-dasharray:none;stroke-dashoffset:0;stroke-opacity:1;paint-order:fill markers stroke"
           id="path78"
           sodipodi:sides="4"
           sodipodi:cx="12.473214"
           sodipodi:cy="18.620535"
           sodipodi:r1="18.598772"
           sodipodi:r2="18.598772"
           sodipodi:arg1="0.83571537"
           sodipodi:arg2="1.6211135"
           inkscape:flatsided="true"
           inkscape:rounded="1"
           inkscape:randomized="0"
           d="M 24.946429,32.416666 C 5.4357527,50.056455 16.316872,50.604426 -1.3229172,31.093749 -18.962706,11.583073 -19.510676,22.464193 -4.2863655e-7,4.8244036 19.510676,-12.815386 8.6295563,-13.363356 26.269345,6.1473203 43.909135,25.657996 44.457105,14.776877 24.946429,32.416666 Z"
           transform="matrix(0.80382472,-0.32607309,0.32607309,0.80382472,-27.059243,72.542985)" />
      </g>
      <g
         id="g92"
         transform="matrix(0.07840512,-0.12787832,0.12787832,0.07840512,21.688023,70.385373)"
         style="stroke-width:6.66663265">
        <path
           sodipodi:type="star"
           style="opacity:1;vector-effect:none;fill:#cccccc;fill-opacity:1;stroke:none;stroke-width:3.99997973;stroke-linecap:butt;stroke-linejoin:round;stroke-miterlimit:4;stroke-dasharray:none;stroke-dashoffset:0;stroke-opacity:1;paint-order:fill markers stroke"
           id="path88"
           sodipodi:sides="4"
           sodipodi:cx="12.473214"
           sodipodi:cy="18.620535"
           sodipodi:r1="18.598772"
           sodipodi:r2="18.598772"
           sodipodi:arg1="0.83571537"
           sodipodi:arg2="1.6211135"
           inkscape:flatsided="true"
           inkscape:rounded="1"
           inkscape:randomized="0"
           d="M 24.946429,32.416666 C 5.4357527,50.056455 16.316872,50.604426 -1.3229172,31.093749 -18.962706,11.583073 -19.510676,22.464193 -4.2863655e-7,4.8244036 19.510676,-12.815386 8.6295563,-13.363356 26.269345,6.1473203 43.909135,25.657996 44.457105,14.776877 24.946429,32.416666 Z"
           transform="rotate(-22.080032,166.87893,111.08811)" />
        <path
           transform="matrix(0.80382472,-0.32607309,0.32607309,0.80382472,-27.059243,72.542985)"
           d="M 24.946429,32.416666 C 5.4357527,50.056455 16.316872,50.604426 -1.3229172,31.093749 -18.962706,11.583073 -19.510676,22.464193 -4.2863655e-7,4.8244036 19.510676,-12.815386 8.6295563,-13.363356 26.269345,6.1473203 43.909135,25.657996 44.457105,14.776877 24.946429,32.416666 Z"
           inkscape:randomized="0"
           inkscape:rounded="1"
           inkscape:flatsided="true"
           sodipodi:arg2="1.6211135"
           sodipodi:arg1="0.83571537"
           sodipodi:r2="18.598772"
           sodipodi:r1="18.598772"
           sodipodi:cy="18.620535"
           sodipodi:cx="12.473214"
           sodipodi:sides="4"
           id="path90"
           style="opacity:1;vector-effect:none;fill:#e6e6e6;fill-opacity:1;stroke:none;stroke-width:4.61122894;stroke-linecap:butt;stroke-linejoin:round;stroke-miterlimit:4;stroke-dasharray:none;stroke-dashoffset:0;stroke-opacity:1;paint-order:fill markers stroke"
           sodipodi:type="star" />
      </g>
      <g
         style="stroke-width:6.66663265"
         transform="matrix(0.07840512,-0.12787832,0.12787832,0.07840512,53.249035,77.944897)"
         id="g98">
        <path
           transform="rotate(-22.080032,166.87893,111.08811)"
           d="M 24.946429,32.416666 C 5.4357527,50.056455 16.316872,50.604426 -1.3229172,31.093749 -18.962706,11.583073 -19.510676,22.464193 -4.2863655e-7,4.8244036 19.510676,-12.815386 8.6295563,-13.363356 26.269345,6.1473203 43.909135,25.657996 44.457105,14.776877 24.946429,32.416666 Z"
           inkscape:randomized="0"
           inkscape:rounded="1"
           inkscape:flatsided="true"
           sodipodi:arg2="1.6211135"
           sodipodi:arg1="0.83571537"
           sodipodi:r2="18.598772"
           sodipodi:r1="18.598772"
           sodipodi:cy="18.620535"
           sodipodi:cx="12.473214"
           sodipodi:sides="4"
           id="path94"
           style="opacity:1;vector-effect:none;fill:#cccccc;fill-opacity:1;stroke:none;stroke-width:3.99997973;stroke-linecap:butt;stroke-linejoin:round;stroke-miterlimit:4;stroke-dasharray:none;stroke-dashoffset:0;stroke-opacity:1;paint-order:fill markers stroke"
           sodipodi:type="star" />
        <path
           sodipodi:type="star"
           style="opacity:1;vector-effect:none;fill:#e6e6e6;fill-opacity:1;stroke:none;stroke-width:4.61122894;stroke-linecap:butt;stroke-linejoin:round;stroke-miterlimit:4;stroke-dasharray:none;stroke-dashoffset:0;stroke-opacity:1;paint-order:fill markers stroke"
           id="path96"
           sodipodi:sides="4"
           sodipodi:cx="12.473214"
           sodipodi:cy="18.620535"
           sodipodi:r1="18.598772"
           sodipodi:r2="18.598772"
           sodipodi:arg1="0.83571537"
           sodipodi:arg2="1.6211135"
           inkscape:flatsided="true"
           inkscape:rounded="1"
           inkscape:randomized="0"
           d="M 24.946429,32.416666 C 5.4357527,50.056455 16.316872,50.604426 -1.3229172,31.093749 -18.962706,11.583073 -19.510676,22.464193 -4.2863655e-7,4.8244036 19.510676,-12.815386 8.6295563,-13.363356 26.269345,6.1473203 43.909135,25.657996 44.457105,14.776877 24.946429,32.416666 Z"
           transform="matrix(0.80382472,-0.32607309,0.32607309,0.80382472,-27.059243,72.542985)" />
      </g>
      <g
         id="g104"
         transform="matrix(-0.01244221,-0.14948384,0.14948384,-0.01244221,64.624497,26.513389)"
         style="stroke-width:6.66663265">
        <path
           sodipodi:type="star"
           style="opacity:1;vector-effect:none;fill:#cccccc;fill-opacity:1;stroke:none;stroke-width:3.99997973;stroke-linecap:butt;stroke-linejoin:round;stroke-miterlimit:4;stroke-dasharray:none;stroke-dashoffset:0;stroke-opacity:1;paint-order:fill markers stroke"
           id="path100"
           sodipodi:sides="4"
           sodipodi:cx="12.473214"
           sodipodi:cy="18.620535"
           sodipodi:r1="18.598772"
           sodipodi:r2="18.598772"
           sodipodi:arg1="0.83571537"
           sodipodi:arg2="1.6211135"
           inkscape:flatsided="true"
           inkscape:rounded="1"
           inkscape:randomized="0"
           d="M 24.946429,32.416666 C 5.4357527,50.056455 16.316872,50.604426 -1.3229172,31.093749 -18.962706,11.583073 -19.510676,22.464193 -4.2863655e-7,4.8244036 19.510676,-12.815386 8.6295563,-13.363356 26.269345,6.1473203 43.909135,25.657996 44.457105,14.776877 24.946429,32.416666 Z"
           transform="rotate(-22.080032,166.87893,111.08811)" />
        <path
           transform="matrix(0.80382472,-0.32607309,0.32607309,0.80382472,-27.059243,72.542985)"
           d="M 24.946429,32.416666 C 5.4357527,50.056455 16.316872,50.604426 -1.3229172,31.093749 -18.962706,11.583073 -19.510676,22.464193 -4.2863655e-7,4.8244036 19.510676,-12.815386 8.6295563,-13.363356 26.269345,6.1473203 43.909135,25.657996 44.457105,14.776877 24.946429,32.416666 Z"
           inkscape:randomized="0"
           inkscape:rounded="1"
           inkscape:flatsided="true"
           sodipodi:arg2="1.6211135"
           sodipodi:arg1="0.83571537"
           sodipodi:r2="18.598772"
           sodipodi:r1="18.598772"
           sodipodi:cy="18.620535"
           sodipodi:cx="12.473214"
           sodipodi:sides="4"
           id="path102"
           style="opacity:1;vector-effect:none;fill:#e6e6e6;fill-opacity:1;stroke:none;stroke-width:4.61122894;stroke-linecap:butt;stroke-linejoin:round;stroke-miterlimit:4;stroke-dasharray:none;stroke-dashoffset:0;stroke-opacity:1;paint-order:fill markers stroke"
           sodipodi:type="star" />
      </g>
      <g
         style="stroke-width:6.66663265"
         transform="matrix(0.11307305,-0.09856324,0.09856324,0.11307305,69.185545,33.001379)"
         id="g116">
        <path
           transform="rotate(-22.080032,166.87893,111.08811)"
           d="M 24.946429,32.416666 C 5.4357527,50.056455 16.316872,50.604426 -1.3229172,31.093749 -18.962706,11.583073 -19.510676,22.464193 -4.2863655e-7,4.8244036 19.510676,-12.815386 8.6295563,-13.363356 26.269345,6.1473203 43.909135,25.657996 44.457105,14.776877 24.946429,32.416666 Z"
           inkscape:randomized="0"
           inkscape:rounded="1"
           inkscape:flatsided="true"
           sodipodi:arg2="1.6211135"
           sodipodi:arg1="0.83571537"
           sodipodi:r2="18.598772"
           sodipodi:r1="18.598772"
           sodipodi:cy="18.620535"
           sodipodi:cx="12.473214"
           sodipodi:sides="4"
           id="path112"
           style="opacity:1;vector-effect:none;fill:#cccccc;fill-opacity:1;stroke:none;stroke-width:3.99997973;stroke-linecap:butt;stroke-linejoin:round;stroke-miterlimit:4;stroke-dasharray:none;stroke-dashoffset:0;stroke-opacity:1;paint-order:fill markers stroke"
           sodipodi:type="star" />
        <path
           sodipodi:type="star"
           style="opacity:1;vector-effect:none;fill:#e6e6e6;fill-opacity:1;stroke:none;stroke-width:4.61122894;stroke-linecap:butt;stroke-linejoin:round;stroke-miterlimit:4;stroke-dasharray:none;stroke-dashoffset:0;stroke-opacity:1;paint-order:fill markers stroke"
           id="path114"
           sodipodi:sides="4"
           sodipodi:cx="12.473214"
           sodipodi:cy="18.620535"
           sodipodi:r1="18.598772"
           sodipodi:r2="18.598772"
           sodipodi:arg1="0.83571537"
           sodipodi:arg2="1.6211135"
           inkscape:flatsided="true"
           inkscape:rounded="1"
           inkscape:randomized="0"
           d="M 24.946429,32.416666 C 5.4357527,50.056455 16.316872,50.604426 -1.3229172,31.093749 -18.962706,11.583073 -19.510676,22.464193 -4.2863655e-7,4.8244036 19.510676,-12.815386 8.6295563,-13.363356 26.269345,6.1473203 43.909135,25.657996 44.457105,14.776877 24.946429,32.416666 Z"
           transform="matrix(0.80382472,-0.32607309,0.32607309,0.80382472,-27.059243,72.542985)" />
      </g>
    </g>
  </g>
</svg>
